# xmcd
#
# Track frame offsets: 
#        150
#        13494
#        23907
#        36684
#        50753
#        65753
#        78356
#        90937
#        102593
#        114621
#
# Disc length: 1696 seconds
#
# Revision: 1
# Processed by: cddbd v1.5.2PL0 Copyright (c) Steve Scherf et al.
# Submitted via: ExactAudioCopy v0.99pb4
#
DISCID=8c069e0a
DTITLE=Ray Charles - The Early Years: Let's Have a Ball
DYEAR=2003
DGENRE=Blues
TTITLE0=Baby Won't You Please Come Home
TTITLE1=Sittin' on Top of the World (Now She's Gone)
TTITLE2=You Always Miss the Water (When the Well Runs Dry)
TTITLE3=The Snow is Falling
TTITLE4=Late in the Evening
TTITLE5=Guitar Man (Instrumental)
TTITLE6=Tell Me Baby
TTITLE7=She's on the Ball
TTITLE8=Lets Have a Ball
TTITLE9=Can't You See Darling
EXTD=
EXTT0=
EXTT1=
EXTT2=
EXTT3=
EXTT4=
EXTT5=
EXTT6=
EXTT7=
EXTT8=
EXTT9=
PLAYORDER=
